<?xml version="1.0" encoding="ISO-8859-1" standalone="no"?><svg xmlns="http://www.w3.org/2000/svg" version="1.1" xmlns:xlink="http://www.w3.org/1999/xlink"  >
<line y1="116" x2="300" style="stroke:black; stroke-width:2; " x1="300" y2="216"  />
<line y1="195.772593643" x2="300.0" style="stroke:black; stroke-width:2; " x1="314.691903623" y2="216.0"  />
<line y1="195.775424466" x2="300.0" style="stroke:black; stroke-width:2; " x1="285.304199767" y2="216.0"  />
<line y1="116" x2="1000" style="stroke:black; stroke-width:2; " x1="300" y2="201"  />
<line y1="196.770441273" x2="1000.0" style="stroke:black; stroke-width:2; " x1="975.360380827" y2="201.0"  />
<line y1="199.180182408" x2="1000.0" style="stroke:black; stroke-width:2; " x1="975.066322695" y2="201.0"  />
<line y1="116" x2="1700" style="stroke:black; stroke-width:2; " x1="300" y2="216"  />
<line y1="213.504164584" x2="1700.0" style="stroke:black; stroke-width:2; " x1="1675.12489587" y2="216.0"  />
<line y1="214.928899387" x2="1700.0" style="stroke:black; stroke-width:2; " x1="1675.02295567" y2="216.0"  />
<line y1="116" x2="2400" style="stroke:black; stroke-width:2; " x1="300" y2="201"  />
<line y1="199.584091391" x2="2400.0" style="stroke:black; stroke-width:2; " x1="2375.04012815" y2="201.0"  />
<line y1="200.392916823" x2="2400.0" style="stroke:black; stroke-width:2; " x1="2375.00737209" y2="201.0"  />
<line y1="332" x2="300" style="stroke:black; stroke-width:2; " x1="300" y2="402"  />
<line y1="381.772593643" x2="300.0" style="stroke:black; stroke-width:2; " x1="314.691903623" y2="402.0"  />
<line y1="381.775424466" x2="300.0" style="stroke:black; stroke-width:2; " x1="285.304199767" y2="402.0"  />
<line y1="332" x2="1000" style="stroke:black; stroke-width:2; " x1="300" y2="432"  />
<line y1="427.03326673" x2="1000.0" style="stroke:black; stroke-width:2; " x1="975.498335554" y2="432.0"  />
<line y1="429.8597658" x2="1000.0" style="stroke:black; stroke-width:2; " x1="975.091780522" y2="432.0"  />
<line y1="503" x2="300" style="stroke:black; stroke-width:2; " x1="300" y2="648"  />
<line y1="627.772593643" x2="300.0" style="stroke:black; stroke-width:2; " x1="314.691903623" y2="648.0"  />
<line y1="627.775424466" x2="300.0" style="stroke:black; stroke-width:2; " x1="285.304199767" y2="648.0"  />
<line y1="548" x2="1000" style="stroke:black; stroke-width:2; " x1="1000" y2="603"  />
<line y1="582.772593643" x2="1000.0" style="stroke:black; stroke-width:2; " x1="1014.69190362" y2="603.0"  />
<line y1="582.775424466" x2="1000.0" style="stroke:black; stroke-width:2; " x1="985.304199767" y2="603.0"  />
<line y1="704" x2="300" style="stroke:black; stroke-width:2; " x1="1000" y2="864"  />
<line y1="856.135835985" x2="300.0" style="stroke:black; stroke-width:2; " x1="323.730885452" y2="864.0"  />
<line y1="860.582165991" x2="300.0" style="stroke:black; stroke-width:2; " x1="324.765266215" y2="864.0"  />
<g style="font-size:10px; font-family:Arial; "  >
<rect style="stroke:black; stroke-width:1; fill:white; " height="116" width="600" y="0" x="0"  />
<text y="20" x="10"  >
<tspan style="color: #7;"  >
Nodetype:</tspan>
</text>
<text y="35" x="10"  >
<tspan style="font-weight: bold; color: #7;"  >
Concat</tspan>
</text>
<line y1="40" x2="600" style="stroke:black; stroke-width:1; " x1="0" y2="40"  />
<text y="56" x="10"  >
<tspan style="color: #7;"  >
Attribute(s):</tspan>
</text>
<text y="71" x="10"  >
<tspan style="color: #7;"  >
name="ElementID"</tspan>
</text>
<text y="86" x="10"  >
<tspan style="color: #7;"  >
duplicated=false</tspan>
</text>
<text y="101" x="10"  >
<tspan style="color: #7;"  >
length=9</tspan>
</text>
</g>
<g style="font-size:10px; font-family:Arial; "  >
<rect style="stroke:black; stroke-width:1; fill:white; " height="116" width="600" y="216" x="0"  />
<text y="236" x="10"  >
<tspan style="color: #7;"  >
Nodetype:</tspan>
</text>
<text y="251" x="10"  >
<tspan style="font-weight: bold; color: #7;"  >
Concat</tspan>
</text>
<line y1="256" x2="600" style="stroke:black; stroke-width:1; " x1="0" y2="256"  />
<text y="272" x="10"  >
<tspan style="color: #7;"  >
Attribute(s):</tspan>
</text>
<text y="287" x="10"  >
<tspan style="color: #7;"  >
name="ElementType"</tspan>
</text>
<text y="302" x="10"  >
<tspan style="color: #7;"  >
duplicated=false</tspan>
</text>
<text y="317" x="10"  >
<tspan style="color: #7;"  >
length=11</tspan>
</text>
</g>
<g style="font-size:10px; font-family:Arial; "  >
<rect style="stroke:black; stroke-width:1; fill:white; " height="101" width="600" y="201" x="700"  />
<text y="221" x="710"  >
<tspan style="color: #7;"  >
Nodetype:</tspan>
</text>
<text y="236" x="710"  >
<tspan style="font-weight: bold; color: #7;"  >
Char</tspan>
</text>
<line y1="241" x2="1300" style="stroke:black; stroke-width:1; " x1="700" y2="241"  />
<text y="257" x="710"  >
<tspan style="color: #7;"  >
Attribute(s):</tspan>
</text>
<text y="272" x="710"  >
<tspan style="color: #7;"  >
value='-'</tspan>
</text>
<text y="287" x="710"  >
<tspan style="color: #7;"  >
length=1</tspan>
</text>
</g>
<g style="font-size:10px; font-family:Arial; "  >
<rect style="stroke:black; stroke-width:1; fill:white; " height="116" width="600" y="216" x="1400"  />
<text y="236" x="1410"  >
<tspan style="color: #7;"  >
Nodetype:</tspan>
</text>
<text y="251" x="1410"  >
<tspan style="font-weight: bold; color: #7;"  >
ExactQuantity</tspan>
</text>
<line y1="256" x2="2000" style="stroke:black; stroke-width:1; " x1="1400" y2="256"  />
<text y="272" x="1410"  >
<tspan style="color: #7;"  >
Attribute(s):</tspan>
</text>
<text y="287" x="1410"  >
<tspan style="color: #7;"  >
value=5</tspan>
</text>
<text y="302" x="1410"  >
<tspan style="color: #7;"  >
duplicated=true</tspan>
</text>
<text y="317" x="1410"  >
<tspan style="color: #7;"  >
length=3</tspan>
</text>
</g>
<g style="font-size:10px; font-family:Arial; "  >
<rect style="stroke:black; stroke-width:1; fill:white; " height="101" width="600" y="201" x="2100"  />
<text y="221" x="2110"  >
<tspan style="color: #7;"  >
Nodetype:</tspan>
</text>
<text y="236" x="2110"  >
<tspan style="font-weight: bold; color: #7;"  >
Char</tspan>
</text>
<line y1="241" x2="2700" style="stroke:black; stroke-width:1; " x1="2100" y2="241"  />
<text y="257" x="2110"  >
<tspan style="color: #7;"  >
Attribute(s):</tspan>
</text>
<text y="272" x="2110"  >
<tspan style="color: #7;"  >
value='-'</tspan>
</text>
<text y="287" x="2110"  >
<tspan style="color: #7;"  >
length=1</tspan>
</text>
</g>
<g style="font-size:10px; font-family:Arial; "  >
<rect style="stroke:black; stroke-width:1; fill:white; " height="101" width="600" y="402" x="0"  />
<text y="422" x="10"  >
<tspan style="color: #7;"  >
Nodetype:</tspan>
</text>
<text y="437" x="10"  >
<tspan style="font-weight: bold; color: #7;"  >
InCharClass</tspan>
</text>
<line y1="442" x2="600" style="stroke:black; stroke-width:1; " x1="0" y2="442"  />
<text y="458" x="10"  >
<tspan style="color: #7;"  >
Attribute(s):</tspan>
</text>
<text y="473" x="10"  >
<tspan style="color: #7;"  >
duplicated=false</tspan>
</text>
<text y="488" x="10"  >
<tspan style="color: #7;"  >
length=3</tspan>
</text>
</g>
<g style="font-size:10px; font-family:Arial; "  >
<rect style="stroke:black; stroke-width:1; fill:white; " height="116" width="600" y="432" x="700"  />
<text y="452" x="710"  >
<tspan style="color: #7;"  >
Nodetype:</tspan>
</text>
<text y="467" x="710"  >
<tspan style="font-weight: bold; color: #7;"  >
ExactQuantity</tspan>
</text>
<line y1="472" x2="1300" style="stroke:black; stroke-width:1; " x1="700" y2="472"  />
<text y="488" x="710"  >
<tspan style="color: #7;"  >
Attribute(s):</tspan>
</text>
<text y="503" x="710"  >
<tspan style="color: #7;"  >
value=2</tspan>
</text>
<text y="518" x="710"  >
<tspan style="color: #7;"  >
duplicated=false</tspan>
</text>
<text y="533" x="710"  >
<tspan style="color: #7;"  >
length=3</tspan>
</text>
</g>
<g style="font-size:10px; font-family:Arial; "  >
<rect style="stroke:black; stroke-width:1; fill:white; " height="116" width="600" y="648" x="0"  />
<text y="668" x="10"  >
<tspan style="color: #7;"  >
Nodetype:</tspan>
</text>
<text y="683" x="10"  >
<tspan style="font-weight: bold; color: #7;"  >
Range</tspan>
</text>
<line y1="688" x2="600" style="stroke:black; stroke-width:1; " x1="0" y2="688"  />
<text y="704" x="10"  >
<tspan style="color: #7;"  >
Attribute(s):</tspan>
</text>
<text y="719" x="10"  >
<tspan style="color: #7;"  >
min='A'</tspan>
</text>
<text y="734" x="10"  >
<tspan style="color: #7;"  >
max='Z'</tspan>
</text>
<text y="749" x="10"  >
<tspan style="color: #7;"  >
length=3</tspan>
</text>
</g>
<g style="font-size:10px; font-family:Arial; "  >
<rect style="stroke:black; stroke-width:1; fill:white; " height="101" width="600" y="603" x="700"  />
<text y="623" x="710"  >
<tspan style="color: #7;"  >
Nodetype:</tspan>
</text>
<text y="638" x="710"  >
<tspan style="font-weight: bold; color: #7;"  >
InCharClass</tspan>
</text>
<line y1="643" x2="1300" style="stroke:black; stroke-width:1; " x1="700" y2="643"  />
<text y="659" x="710"  >
<tspan style="color: #7;"  >
Attribute(s):</tspan>
</text>
<text y="674" x="710"  >
<tspan style="color: #7;"  >
duplicated=true</tspan>
</text>
<text y="689" x="710"  >
<tspan style="color: #7;"  >
length=3</tspan>
</text>
</g>
<g style="font-size:10px; font-family:Arial; "  >
<rect style="stroke:black; stroke-width:1; fill:white; " height="116" width="600" y="864" x="0"  />
<text y="884" x="10"  >
<tspan style="color: #7;"  >
Nodetype:</tspan>
</text>
<text y="899" x="10"  >
<tspan style="font-weight: bold; color: #7;"  >
Range</tspan>
</text>
<line y1="904" x2="600" style="stroke:black; stroke-width:1; " x1="0" y2="904"  />
<text y="920" x="10"  >
<tspan style="color: #7;"  >
Attribute(s):</tspan>
</text>
<text y="935" x="10"  >
<tspan style="color: #7;"  >
min=0</tspan>
</text>
<text y="950" x="10"  >
<tspan style="color: #7;"  >
max=9</tspan>
</text>
<text y="965" x="10"  >
<tspan style="color: #7;"  >
length=3</tspan>
</text>
</g>
</svg>
