<?xml version="1.0" encoding="ISO-8859-1" standalone="no"?><svg xmlns="http://www.w3.org/2000/svg" version="1.1" xmlns:xlink="http://www.w3.org/1999/xlink"  >
<defs  >
<marker refY="12.5" refX="10" markerUnits="strokeWidth" viewBox="0 0 30 30" orient="auto" markerWidth="9" id="arrowMarker" markerHeight="30"  >
<path style="stroke-width:1;stroke:black;fill:black;opacity:1" d="M0.3125 0.625 9.3125 12.625 0.3125 24.625 21.3125 12.625 Z"  />
</marker>
</defs>
<line y1="106" x2="359.922778767" style="marker-end:url(#arrowMarker);fill:none;stroke:black;stroke-width:2;width:3;" x1="1150" y2="204.759652654"  />
<line y1="106" x2="958.94427191" style="marker-end:url(#arrowMarker);fill:none;stroke:black;stroke-width:2;width:3;" x1="1150" y2="201.527864045"  />
<line y1="106" x2="1341.05572809" style="marker-end:url(#arrowMarker);fill:none;stroke:black;stroke-width:2;width:3;" x1="1150" y2="201.527864045"  />
<line y1="106" x2="1740.13606076" style="marker-end:url(#arrowMarker);fill:none;stroke:black;stroke-width:2;width:3;" x1="1150" y2="204.356010127"  />
<line y1="106" x2="2140.0496281" style="marker-end:url(#arrowMarker);fill:none;stroke:black;stroke-width:2;width:3;" x1="1150" y2="205.00496281"  />
<line y1="241" x2="1509.99352629" style="marker-end:url(#arrowMarker);fill:none;stroke:black;stroke-width:2;width:3;stroke-dasharray:8 4 20 4;" x1="2000" y2="258.640233053"  />
<line y1="312" x2="158.94427191" style="marker-end:url(#arrowMarker);fill:none;stroke:black;stroke-width:2;width:3;" x1="350" y2="407.527864045"  />
<line y1="312" x2="541.05572809" style="marker-end:url(#arrowMarker);fill:none;stroke:black;stroke-width:2;width:3;" x1="350" y2="407.527864045"  />
<line y1="312" x2="1350" style="marker-end:url(#arrowMarker);fill:none;stroke:black;stroke-width:2;width:3;" x1="1350" y2="402"  />
<line y1="499" x2="709.501926426" style="marker-end:url(#arrowMarker);fill:none;stroke:black;stroke-width:2;width:3;stroke-dasharray:8 4 20 4;" x1="1200" y2="659.883368132"  />
<line y1="503" x2="150" style="marker-end:url(#arrowMarker);fill:none;stroke:black;stroke-width:2;width:3;" x1="150" y2="593"  />
<line y1="518" x2="550" style="marker-end:url(#arrowMarker);fill:none;stroke:black;stroke-width:2;width:3;" x1="550" y2="608"  />
<line y1="709" x2="150" style="marker-end:url(#arrowMarker);fill:none;stroke:black;stroke-width:2;width:3;" x1="150" y2="799"  />
<line y1="844" x2="993.37283137" style="marker-end:url(#arrowMarker);fill:none;stroke:black;stroke-width:2;width:3;stroke-dasharray:8 4 20 4;" x1="300" y2="60.4887005517"  />
<line y1="709" x2="550" style="marker-end:url(#arrowMarker);fill:none;stroke:black;stroke-width:2;width:3;" x1="550" y2="814"  />
<g style="font-size:10px; font-family:Arial; "  >
<rect style="stroke:black; stroke-width:2; fill:white; " height="106" width="300" y="0" x="1000"  />
<text y="15" x="1005"  >
<tspan style="color: #7;"  >
Nodetype:</tspan>
</text>
<text y="30" x="1005"  >
<tspan style="font-weight: bold; color: #7;"  >
Concat</tspan>
</text>
<line y1="35" x2="1300" style="stroke:black; stroke-width:1; " x1="1000" y2="35"  />
<text y="51" x="1005"  >
<tspan style="color: #7;"  >
Attribute(s):</tspan>
</text>
<text y="66" x="1005"  >
<tspan style="color: #7;"  >
name="ElementID"</tspan>
</text>
<text y="81" x="1005"  >
<tspan style="color: #7;"  >
duplicated=false</tspan>
</text>
<text y="96" x="1005"  >
<tspan style="color: #7;"  >
length=9</tspan>
</text>
</g>
<g style="font-size:10px; font-family:Arial; "  >
<rect style="stroke:black; stroke-width:2; fill:white; " height="106" width="300" y="206" x="200"  />
<text y="221" x="205"  >
<tspan style="color: #7;"  >
Nodetype:</tspan>
</text>
<text y="236" x="205"  >
<tspan style="font-weight: bold; color: #7;"  >
Concat</tspan>
</text>
<line y1="241" x2="500" style="stroke:black; stroke-width:1; " x1="200" y2="241"  />
<text y="257" x="205"  >
<tspan style="color: #7;"  >
Attribute(s):</tspan>
</text>
<text y="272" x="205"  >
<tspan style="color: #7;"  >
name="ElementType"</tspan>
</text>
<text y="287" x="205"  >
<tspan style="color: #7;"  >
duplicated=false</tspan>
</text>
<text y="302" x="205"  >
<tspan style="color: #7;"  >
length=11</tspan>
</text>
</g>
<g style="font-size:10px; font-family:Arial; "  >
<rect style="stroke:black; stroke-width:2; fill:white; " height="91" width="300" y="206" x="800"  />
<text y="221" x="805"  >
<tspan style="color: #7;"  >
Nodetype:</tspan>
</text>
<text y="236" x="805"  >
<tspan style="font-weight: bold; color: #7;"  >
Char</tspan>
</text>
<line y1="241" x2="1100" style="stroke:black; stroke-width:1; " x1="800" y2="241"  />
<text y="257" x="805"  >
<tspan style="color: #7;"  >
Attribute(s):</tspan>
</text>
<text y="272" x="805"  >
<tspan style="color: #7;"  >
value='-'</tspan>
</text>
<text y="287" x="805"  >
<tspan style="color: #7;"  >
length=1</tspan>
</text>
</g>
<g style="font-size:10px; font-family:Arial; "  >
<rect style="stroke:black; stroke-width:2; fill:white; " height="106" width="300" y="206" x="1200"  />
<text y="221" x="1205"  >
<tspan style="color: #7;"  >
Nodetype:</tspan>
</text>
<text y="236" x="1205"  >
<tspan style="font-weight: bold; color: #7;"  >
ExactQuantity</tspan>
</text>
<line y1="241" x2="1500" style="stroke:black; stroke-width:1; " x1="1200" y2="241"  />
<text y="257" x="1205"  >
<tspan style="color: #7;"  >
Attribute(s):</tspan>
</text>
<text y="272" x="1205"  >
<tspan style="color: #7;"  >
value=5</tspan>
</text>
<text y="287" x="1205"  >
<tspan style="color: #7;"  >
duplicated=true</tspan>
</text>
<text y="302" x="1205"  >
<tspan style="color: #7;"  >
length=3</tspan>
</text>
</g>
<g style="font-size:10px; font-family:Arial; "  >
<rect style="stroke:black; stroke-width:2; fill:white; " height="91" width="300" y="206" x="1600"  />
<text y="221" x="1605"  >
<tspan style="color: #7;"  >
Nodetype:</tspan>
</text>
<text y="236" x="1605"  >
<tspan style="font-weight: bold; color: #7;"  >
Char</tspan>
</text>
<line y1="241" x2="1900" style="stroke:black; stroke-width:1; " x1="1600" y2="241"  />
<text y="257" x="1605"  >
<tspan style="color: #7;"  >
Attribute(s):</tspan>
</text>
<text y="272" x="1605"  >
<tspan style="color: #7;"  >
value='-'</tspan>
</text>
<text y="287" x="1605"  >
<tspan style="color: #7;"  >
length=1</tspan>
</text>
</g>
<g style="font-size:10px; font-family:Arial; "  >
<rect style="stroke:black; stroke-width:2; fill:gray; " height="106" width="300" y="206" x="2000"  />
<text y="221" x="2005"  >
<tspan style="color: #7;"  >
Nodetype:</tspan>
</text>
<text y="236" x="2005"  >
<tspan style="font-weight: bold; color: #7;"  >
ExactQuantity</tspan>
</text>
<line y1="241" x2="2300" style="stroke:black; stroke-width:1; " x1="2000" y2="241"  />
<text y="257" x="2005"  >
<tspan style="color: #7;"  >
Attribute(s):</tspan>
</text>
<text y="272" x="2005"  >
<tspan style="color: #7;"  >
value=5</tspan>
</text>
<text y="287" x="2005"  >
<tspan style="color: #7;"  >
duplicated=true</tspan>
</text>
<text y="302" x="2005"  >
<tspan style="color: #7;"  >
length=3</tspan>
</text>
</g>
<g style="font-size:10px; font-family:Arial; "  >
<rect style="stroke:black; stroke-width:2; fill:white; " height="91" width="300" y="412" x="0"  />
<text y="427" x="5"  >
<tspan style="color: #7;"  >
Nodetype:</tspan>
</text>
<text y="442" x="5"  >
<tspan style="font-weight: bold; color: #7;"  >
InCharClass</tspan>
</text>
<line y1="447" x2="300" style="stroke:black; stroke-width:1; " x1="0" y2="447"  />
<text y="463" x="5"  >
<tspan style="color: #7;"  >
Attribute(s):</tspan>
</text>
<text y="478" x="5"  >
<tspan style="color: #7;"  >
duplicated=false</tspan>
</text>
<text y="493" x="5"  >
<tspan style="color: #7;"  >
length=3</tspan>
</text>
</g>
<g style="font-size:10px; font-family:Arial; "  >
<rect style="stroke:black; stroke-width:2; fill:white; " height="106" width="300" y="412" x="400"  />
<text y="427" x="405"  >
<tspan style="color: #7;"  >
Nodetype:</tspan>
</text>
<text y="442" x="405"  >
<tspan style="font-weight: bold; color: #7;"  >
ExactQuantity</tspan>
</text>
<line y1="447" x2="700" style="stroke:black; stroke-width:1; " x1="400" y2="447"  />
<text y="463" x="405"  >
<tspan style="color: #7;"  >
Attribute(s):</tspan>
</text>
<text y="478" x="405"  >
<tspan style="color: #7;"  >
value=2</tspan>
</text>
<text y="493" x="405"  >
<tspan style="color: #7;"  >
duplicated=false</tspan>
</text>
<text y="508" x="405"  >
<tspan style="color: #7;"  >
length=3</tspan>
</text>
</g>
<g style="font-size:10px; font-family:Arial; "  >
<rect style="stroke:black; stroke-width:2; fill:gray; " height="91" width="300" y="412" x="1200"  />
<text y="427" x="1205"  >
<tspan style="color: #7;"  >
Nodetype:</tspan>
</text>
<text y="442" x="1205"  >
<tspan style="font-weight: bold; color: #7;"  >
InCharClass</tspan>
</text>
<line y1="447" x2="1500" style="stroke:black; stroke-width:1; " x1="1200" y2="447"  />
<text y="463" x="1205"  >
<tspan style="color: #7;"  >
Attribute(s):</tspan>
</text>
<text y="478" x="1205"  >
<tspan style="color: #7;"  >
duplicated=true</tspan>
</text>
<text y="493" x="1205"  >
<tspan style="color: #7;"  >
length=3</tspan>
</text>
</g>
<g style="font-size:10px; font-family:Arial; "  >
<rect style="stroke:black; stroke-width:2; fill:white; " height="106" width="300" y="603" x="0"  />
<text y="618" x="5"  >
<tspan style="color: #7;"  >
Nodetype:</tspan>
</text>
<text y="633" x="5"  >
<tspan style="font-weight: bold; color: #7;"  >
Range</tspan>
</text>
<line y1="638" x2="300" style="stroke:black; stroke-width:1; " x1="0" y2="638"  />
<text y="654" x="5"  >
<tspan style="color: #7;"  >
Attribute(s):</tspan>
</text>
<text y="669" x="5"  >
<tspan style="color: #7;"  >
min='A'</tspan>
</text>
<text y="684" x="5"  >
<tspan style="color: #7;"  >
max='Z'</tspan>
</text>
<text y="699" x="5"  >
<tspan style="color: #7;"  >
length=3</tspan>
</text>
</g>
<g style="font-size:10px; font-family:Arial; "  >
<rect style="stroke:black; stroke-width:2; fill:white; " height="91" width="300" y="618" x="400"  />
<text y="633" x="405"  >
<tspan style="color: #7;"  >
Nodetype:</tspan>
</text>
<text y="648" x="405"  >
<tspan style="font-weight: bold; color: #7;"  >
InCharClass</tspan>
</text>
<line y1="653" x2="700" style="stroke:black; stroke-width:1; " x1="400" y2="653"  />
<text y="669" x="405"  >
<tspan style="color: #7;"  >
Attribute(s):</tspan>
</text>
<text y="684" x="405"  >
<tspan style="color: #7;"  >
duplicated=true</tspan>
</text>
<text y="699" x="405"  >
<tspan style="color: #7;"  >
length=3</tspan>
</text>
</g>
<g style="font-size:10px; font-family:Arial; "  >
<rect style="stroke:black; stroke-width:2; fill:gray; " height="106" width="300" y="809" x="0"  />
<text y="824" x="5"  >
<tspan style="color: #7;"  >
Nodetype:</tspan>
</text>
<text y="839" x="5"  >
<tspan style="font-weight: bold; color: #7;"  >
Concat</tspan>
</text>
<line y1="844" x2="300" style="stroke:black; stroke-width:1; " x1="0" y2="844"  />
<text y="860" x="5"  >
<tspan style="color: #7;"  >
Attribute(s):</tspan>
</text>
<text y="875" x="5"  >
<tspan style="color: #7;"  >
name="ElementID"</tspan>
</text>
<text y="890" x="5"  >
<tspan style="color: #7;"  >
duplicated=false</tspan>
</text>
<text y="905" x="5"  >
<tspan style="color: #7;"  >
length=9</tspan>
</text>
</g>
<g style="font-size:10px; font-family:Arial; "  >
<rect style="stroke:black; stroke-width:2; fill:white; " height="106" width="300" y="824" x="400"  />
<text y="839" x="405"  >
<tspan style="color: #7;"  >
Nodetype:</tspan>
</text>
<text y="854" x="405"  >
<tspan style="font-weight: bold; color: #7;"  >
Range</tspan>
</text>
<line y1="859" x2="700" style="stroke:black; stroke-width:1; " x1="400" y2="859"  />
<text y="875" x="405"  >
<tspan style="color: #7;"  >
Attribute(s):</tspan>
</text>
<text y="890" x="405"  >
<tspan style="color: #7;"  >
min=0</tspan>
</text>
<text y="905" x="405"  >
<tspan style="color: #7;"  >
max=9</tspan>
</text>
<text y="920" x="405"  >
<tspan style="color: #7;"  >
length=3</tspan>
</text>
</g>
</svg>
